# xmcd CD database file
#
# Track frame offsets:
#	150
#	18228
#	33568
#	47424
#	67676
#	85739
#	105261
#	124349
#	143497
#	163646
#	178982
#	200623
#	224638
#
# Disc length: 3217 seconds
#
# Revision: 1
# Processed by: cddbd v1.5.2PL0 Copyright (c) Steve Scherf et al.
# Submitted via: CDex 1.51
#
DISCID=ad0c8f0d
DTITLE=Lynn Yew Evers - Elysian
DYEAR=2015
DGENRE=New Age
TTITLE0=As The Train Leaves
TTITLE1=Remembering Love
TTITLE2=Kindred Spirit
TTITLE3=Shrouded Hope
TTITLE4=Finding You
TTITLE5=Dream Chaser
TTITLE6=Bluebird Day
TTITLE7=Crosswalk To Maplehurst
TTITLE8=Enchanted Stroll
TTITLE9=Urban Trekking
TTITLE10=Beautiful
TTITLE11=Night Owl, In A Style Of A Nocturne
TTITLE12=As The Train Leaves (Reprise)
EXTD=YEAR: 2015
EXTT0=
EXTT1=
EXTT2=
EXTT3=
EXTT4=
EXTT5=
EXTT6=
EXTT7=
EXTT8=
EXTT9=
EXTT10=
EXTT11=
EXTT12=
PLAYORDER=
